<?xml version="1.0" encoding="UTF-8" standalone="no"?>
<!DOCTYPE svg PUBLIC "-//W3C//DTD SVG 1.1//EN"
 "http://www.w3.org/Graphics/SVG/1.1/DTD/svg11.dtd">
<!-- Generated by graphviz version 2.36.0 (20140111.2315)
 -->
<!-- Title: controllers_diagram Pages: 1 -->
<svg width="274pt" height="244pt"
 viewBox="0.00 0.00 274.00 244.00" xmlns="http://www.w3.org/2000/svg" xmlns:xlink="http://www.w3.org/1999/xlink">
<g id="graph0" class="graph" transform="scale(1 1) rotate(0) translate(4 240)">
<title>controllers_diagram</title>
<polygon fill="white" stroke="none" points="-4,4 -4,-240 270,-240 270,4 -4,4"/>
<!-- _diagram_info -->
<g id="node1" class="node"><title>_diagram_info</title>
<text text-anchor="start" x="8" y="-63.6" font-family="Times,serif" font-size="13.00">Controllers diagram</text>
<text text-anchor="start" x="8" y="-49.6" font-family="Times,serif" font-size="13.00">Date: Jan 21 2015 &#45; 13:12</text>
<text text-anchor="start" x="8" y="-35.6" font-family="Times,serif" font-size="13.00">Migration version: 0</text>
<text text-anchor="start" x="8" y="-21.6" font-family="Times,serif" font-size="13.00">Generated by RailRoady 1.3.0</text>
<text text-anchor="start" x="8" y="-7.6" font-family="Times,serif" font-size="13.00">http://railroady.prestonlee.com</text>
</g>
<!-- DataController -->
<g id="node2" class="node"><title>DataController</title>
<path fill="none" stroke="black" d="M180,-112.5C180,-112.5 254,-112.5 254,-112.5 260,-112.5 266,-118.5 266,-124.5 266,-124.5 266,-223.5 266,-223.5 266,-229.5 260,-235.5 254,-235.5 254,-235.5 180,-235.5 180,-235.5 174,-235.5 168,-229.5 168,-223.5 168,-223.5 168,-124.5 168,-124.5 168,-118.5 174,-112.5 180,-112.5"/>
<text text-anchor="middle" x="217" y="-220.3" font-family="Times,serif" font-size="14.00">DataController</text>
<polyline fill="none" stroke="black" points="168,-212.5 266,-212.5 "/>
<text text-anchor="start" x="176" y="-197.3" font-family="Times,serif" font-size="14.00">data</text>
<text text-anchor="start" x="176" y="-182.3" font-family="Times,serif" font-size="14.00">index</text>
<text text-anchor="start" x="176" y="-167.3" font-family="Times,serif" font-size="14.00">select_account</text>
<polyline fill="none" stroke="black" points="168,-159.5 266,-159.5 "/>
<polyline fill="none" stroke="black" points="168,-135.5 266,-135.5 "/>
<text text-anchor="start" x="176" y="-120.3" font-family="Times,serif" font-size="14.00">_layout</text>
</g>
<!-- ApplicationController -->
<g id="node3" class="node"><title>ApplicationController</title>
<path fill="none" stroke="black" d="M12,-140.5C12,-140.5 124,-140.5 124,-140.5 130,-140.5 136,-146.5 136,-152.5 136,-152.5 136,-222.5 136,-222.5 136,-228.5 130,-234.5 124,-234.5 124,-234.5 12,-234.5 12,-234.5 6,-234.5 -1.42109e-14,-228.5 -1.42109e-14,-222.5 -1.42109e-14,-222.5 -1.42109e-14,-152.5 -1.42109e-14,-152.5 -1.42109e-14,-146.5 6,-140.5 12,-140.5"/>
<text text-anchor="middle" x="68" y="-219.3" font-family="Times,serif" font-size="14.00">ApplicationController</text>
<polyline fill="none" stroke="black" points="-1.42109e-14,-211.5 136,-211.5 "/>
<polyline fill="none" stroke="black" points="-1.42109e-14,-187.5 136,-187.5 "/>
<polyline fill="none" stroke="black" points="-1.42109e-14,-163.5 136,-163.5 "/>
<text text-anchor="start" x="8" y="-148.3" font-family="Times,serif" font-size="14.00">_layout</text>
</g>
</g>
</svg>
